<svg width="31" height="31" viewBox="0 0 31 31" fill="none" xmlns="http://www.w3.org/2000/svg">
<path d="M15.6366 18.7905L29.1966 3.90698L30.9868 5.53796L15.7609 22.25L7.46051 14.3594L9.12933 12.6042L15.6366 18.7905ZM30.0464 10.1267L28.1579 12.2061C28.4321 13.2588 28.5781 14.3627 28.5781 15.5C28.5781 22.7111 22.7111 28.5781 15.5 28.5781C8.28887 28.5781 2.42188 22.7111 2.42188 15.5C2.42188 8.28887 8.28887 2.42188 15.5 2.42188C18.8407 2.42188 21.8922 3.68163 24.2065 5.75006L25.8391 3.95239C22.9929 1.39788 19.354 0 15.5 0C11.3599 0 7.46732 1.61225 4.53988 4.53988C1.61225 7.46732 0 11.3599 0 15.5C0 19.6401 1.61225 23.5327 4.53988 26.4601C7.46732 29.3877 11.3599 31 15.5 31C19.6401 31 23.5327 29.3877 26.4601 26.4601C29.3877 23.5327 31 19.6401 31 15.5C31 13.6367 30.6725 11.824 30.0464 10.1267Z" fill="url(#paint0_linear_419_99)"/>
<defs>
<linearGradient id="paint0_linear_419_99" x1="15.5" y1="0" x2="15.5" y2="31" gradientUnits="userSpaceOnUse">
<stop stop-color="#6A0A0A"/>
<stop offset="1" stop-color="#E11515"/>
</linearGradient>
</defs>
</svg>
