<svg width="35" height="35" viewBox="0 0 35 35" fill="none" xmlns="http://www.w3.org/2000/svg">
<path d="M17.5 35C27.165 35 35 27.165 35 17.5C35 7.83502 27.165 0 17.5 0C7.83502 0 0 7.83502 0 17.5C0 27.165 7.83502 35 17.5 35Z" fill="#E51919"/>
<path d="M34.406 22.0363C33.6079 25.0001 32.0455 27.7024 29.8751 29.8728C27.7047 32.0432 25.0024 33.6056 22.0386 34.4037L11.5547 23.9198C13.2159 25.4896 15.4253 26.3471 17.7106 26.3089C19.9958 26.2708 22.1754 25.34 23.7832 23.7156C25.3911 22.0912 26.2995 19.9022 26.3143 17.6167C26.329 15.3312 25.449 13.1306 23.8623 11.4856L34.406 22.0363Z" fill="url(#paint0_linear_48_86)"/>
<path d="M17.5 26.25C22.3325 26.25 26.25 22.3325 26.25 17.5C26.25 12.6675 22.3325 8.75 17.5 8.75C12.6675 8.75 8.75 12.6675 8.75 17.5C8.75 22.3325 12.6675 26.25 17.5 26.25Z" fill="white"/>
<path d="M21.8746 21.8749C21.6981 22.0478 21.4609 22.1447 21.2138 22.1447C20.9667 22.1447 20.7294 22.0478 20.5529 21.8749L17.4996 18.8193L14.4394 21.8749C14.3559 21.9726 14.253 22.0521 14.1373 22.1082C14.0215 22.1643 13.8955 22.1959 13.7669 22.2009C13.6384 22.206 13.5102 22.1844 13.3905 22.1375C13.2707 22.0906 13.1619 22.0194 13.071 21.9285C12.98 21.8375 12.9089 21.7288 12.862 21.609C12.8151 21.4892 12.7935 21.3611 12.7986 21.2325C12.8036 21.104 12.8352 20.9779 12.8913 20.8622C12.9474 20.7465 13.0268 20.6436 13.1246 20.5601L16.1802 17.4999L13.1246 14.4397C13.0268 14.3561 12.9474 14.2532 12.8913 14.1375C12.8352 14.0218 12.8036 13.8957 12.7986 13.7672C12.7935 13.6387 12.8151 13.5105 12.862 13.3907C12.9089 13.271 12.98 13.1622 13.071 13.0712C13.1619 12.9803 13.2707 12.9091 13.3905 12.8623C13.5102 12.8154 13.6384 12.7938 13.7669 12.7988C13.8955 12.8038 14.0215 12.8354 14.1373 12.8915C14.253 12.9476 14.3559 13.0271 14.4394 13.1249L17.4996 16.1805L20.5598 13.1249C20.6434 13.0271 20.7462 12.9476 20.862 12.8915C20.9777 12.8354 21.1038 12.8038 21.2323 12.7988C21.3608 12.7938 21.489 12.8154 21.6088 12.8623C21.7285 12.9091 21.8373 12.9803 21.9282 13.0712C22.0192 13.1622 22.0903 13.271 22.1372 13.3907C22.1841 13.5105 22.2057 13.6387 22.2007 13.7672C22.1956 13.8957 22.1641 14.0218 22.108 14.1375C22.0518 14.2532 21.9724 14.3561 21.8746 14.4397L18.819 17.4999L21.8746 20.5601C22.0455 20.7362 22.1411 20.972 22.1411 21.2175C22.1411 21.4629 22.0455 21.6987 21.8746 21.8749Z" fill="#E51919"/>
<path opacity="0.25" d="M21.8746 13.1249L13.1246 21.8749C12.9516 21.6984 12.8547 21.4611 12.8547 21.214C12.8547 20.9669 12.9516 20.7296 13.1246 20.5532L16.1802 17.4999L13.1246 14.4397C13.0268 14.3561 12.9474 14.2532 12.8913 14.1375C12.8352 14.0218 12.8036 13.8957 12.7986 13.7672C12.7935 13.6387 12.8151 13.5105 12.862 13.3907C12.9089 13.271 12.98 13.1622 13.071 13.0712C13.1619 12.9803 13.2707 12.9091 13.3905 12.8623C13.5102 12.8154 13.6384 12.7938 13.7669 12.7988C13.8955 12.8038 14.0215 12.8354 14.1373 12.8915C14.253 12.9476 14.3559 13.0271 14.4394 13.1249L17.4996 16.1805L20.5598 13.1249C20.736 12.954 20.9718 12.8584 21.2172 12.8584C21.4627 12.8584 21.6985 12.954 21.8746 13.1249Z" fill="white"/>
<defs>
<linearGradient id="paint0_linear_48_86" x1="17.6774" y1="17.6751" x2="29.8744" y2="29.8721" gradientUnits="userSpaceOnUse">
<stop stop-color="#710B0B"/>
<stop offset="1" stop-color="#E31515"/>
</linearGradient>
</defs>
</svg>
