<?xml version="1.0" standalone="no"?>
<!DOCTYPE svg PUBLIC "-//W3C//DTD SVG 20010904//EN"
 "http://www.w3.org/TR/2001/REC-SVG-20010904/DTD/svg10.dtd">
<svg version="1.0" xmlns="http://www.w3.org/2000/svg"
 width="163.000000pt" height="100.000000pt" viewBox="0 0 163.000000 100.000000"
 preserveAspectRatio="xMidYMid meet">
<metadata>
Created by potrace 1.16, written by Peter Selinger 2001-2019
</metadata>
<g transform="translate(0.000000,100.000000) scale(0.100000,-0.100000)"
fill="#000000" stroke="none">
<path d="M20 980 c-19 -19 -20 -33 -20 -480 0 -447 1 -461 20 -480 20 -20 33
-20 795 -20 762 0 775 0 795 20 19 19 20 33 20 480 0 447 -1 461 -20 480 -20
20 -33 20 -795 20 -762 0 -775 0 -795 -20z m865 -502 c-4 -123 -10 -227 -15
-231 -6 -7 -279 39 -289 48 -8 8 32 301 43 312 8 8 221 82 265 92 2 1 0 -99
-4 -221z"/>
<path d="M733 589 c-75 -22 -97 -108 -41 -166 36 -37 31 -52 -13 -36 -28 11
-31 10 -40 -13 -14 -37 -12 -42 21 -59 61 -32 120 -12 140 49 14 43 2 75 -42
110 -27 21 -30 28 -18 35 8 6 26 7 41 4 23 -4 28 -1 38 28 6 18 8 36 4 40 -14
14 -58 18 -90 8z m73 -25 c-3 -9 -6 -19 -6 -24 0 -5 -17 -10 -37 -12 -51 -4
-54 -29 -9 -72 40 -37 47 -76 20 -114 -27 -38 -124 -27 -124 15 0 8 13 12 37
10 50 -3 55 22 14 69 -17 19 -31 41 -31 49 0 52 47 94 109 95 26 0 32 -3 27
-16z"/>
</g>
</svg>
